<svg width="25" height="24" viewBox="0 0 25 24" fill="none" xmlns="http://www.w3.org/2000/svg">
<g clip-path="url(#clip0_514_53)">
<path d="M23.119 5.9701C22.026 4.13363 20.5435 2.67958 18.6709 1.60767C16.7981 0.535818 14.7536 0 12.5359 0C10.3184 0 8.27334 0.535818 6.40081 1.60767C4.52817 2.67942 3.04561 4.13347 1.95263 5.9701C0.859587 7.80683 0.313263 9.81261 0.313263 11.9873C0.313263 14.162 0.859754 16.1675 1.95246 18.0043C3.04538 19.8408 4.52795 21.2948 6.40059 22.3669C8.27334 23.4387 10.3183 23.9745 12.5357 23.9745C14.7531 23.9745 16.7982 23.4387 18.6709 22.3669C20.5434 21.2952 22.0259 19.8408 23.1188 18.0043C24.2115 16.1676 24.7578 14.1619 24.7578 11.9873C24.7578 9.81239 24.2115 7.80656 23.119 5.9701ZM12.5357 1.74817C15.1668 1.74817 17.4639 2.6014 19.4266 4.30781L19.2276 4.58077C19.1481 4.69022 18.9491 4.9007 18.631 5.21303C18.3127 5.52508 17.9653 5.82183 17.5887 6.10272C17.2117 6.38373 16.7001 6.70365 16.0527 7.06267C15.4055 7.42169 14.7159 7.73664 13.9837 8.00714C12.7637 5.80095 11.4589 3.81349 10.0689 2.04465C10.9072 1.84696 11.7294 1.74817 12.5357 1.74817ZM4.35587 5.63426C5.37433 4.37544 6.61547 3.40756 8.07975 2.7313C9.39531 4.4482 10.6896 6.415 11.9628 8.63131C8.7375 9.46376 5.52288 9.88002 2.31874 9.87985C2.65843 8.3087 3.33742 6.89336 4.35587 5.63426ZM2.796 15.6789C2.3291 14.5084 2.09571 13.2777 2.09571 11.9873C2.09571 11.8415 2.10118 11.7322 2.11166 11.6595C5.95254 11.6595 9.52279 11.1757 12.8224 10.2078C13.1619 10.8529 13.4431 11.4305 13.6659 11.9405C13.6229 11.9612 13.5545 11.9845 13.4589 12.0106C13.3631 12.0366 13.2943 12.0547 13.2515 12.0652L12.6628 12.2681C12.2595 12.4138 11.7315 12.6636 11.0793 13.0172C10.4269 13.3714 9.73461 13.7926 9.0025 14.2817C8.27038 14.771 7.51442 15.4187 6.7347 16.2254C5.95488 17.0318 5.29974 17.8978 4.76925 18.8239C3.92047 17.8978 3.26278 16.8492 2.796 15.6789ZM12.5357 22.2265C10.053 22.2265 7.8356 21.446 5.88336 19.8853L6.1221 20.0571C6.4934 19.2556 7.03972 18.4855 7.76135 17.7469C8.48287 17.0082 9.17775 16.4122 9.84615 15.9595C10.5145 15.5071 11.2412 15.0805 12.0265 14.6794C12.8115 14.2791 13.3471 14.0239 13.6338 13.915C13.9203 13.8057 14.1485 13.7197 14.3182 13.6571L14.3498 13.6415H14.3819C15.4213 16.3157 16.1644 18.9069 16.6098 21.4146C15.2942 21.956 13.9364 22.2264 12.5357 22.2265ZM21.321 17.5205C20.5358 18.7121 19.5542 19.6982 18.3768 20.4783C17.9415 18.0851 17.2629 15.6447 16.3395 13.158C18.4509 12.835 20.6205 12.9862 22.8486 13.6103C22.6151 15.0255 22.1057 16.3291 21.321 17.5205ZM22.8165 11.8468C22.7104 11.8261 22.5777 11.8025 22.4186 11.7767C22.2595 11.7508 22.0657 11.7194 21.8375 11.683C21.6097 11.6466 21.3547 11.6129 21.0737 11.5816C20.7925 11.5504 20.4929 11.5219 20.1743 11.4958C19.8561 11.4697 19.5165 11.4491 19.156 11.4333C18.7949 11.4178 18.429 11.41 18.0576 11.41C17.6866 11.41 17.2964 11.4205 16.8881 11.4412C16.4797 11.4617 16.0846 11.4985 15.7028 11.5505C15.6707 11.4984 15.631 11.4125 15.5833 11.2927C15.5356 11.1732 15.5009 11.082 15.4803 11.0196C15.2784 10.5825 15.0449 10.0882 14.7794 9.53686C15.5116 9.2453 16.2093 8.90985 16.8728 8.52995C17.5357 8.15005 18.0658 7.81208 18.4639 7.51555C18.8619 7.2187 19.2384 6.90391 19.5938 6.57102C19.9494 6.23809 20.1798 6.00667 20.2863 5.87656C20.3925 5.74622 20.4932 5.61884 20.5886 5.49414L20.6046 5.4784C22.1536 7.33061 22.9443 9.46365 22.9758 11.878L22.8165 11.8468Z" fill="url(#paint0_linear_514_53)"/>
</g>
<defs>
<linearGradient id="paint0_linear_514_53" x1="12.5355" y1="0" x2="12.5355" y2="23.9745" gradientUnits="userSpaceOnUse">
<stop stop-color="#D95F2F"/>
<stop offset="0.5" stop-color="#CE3D7E"/>
<stop offset="1" stop-color="#B91EBD"/>
</linearGradient>
<clipPath id="clip0_514_53">
<rect width="25" height="24" fill="white"/>
</clipPath>
</defs>
</svg>
