<svg width="24" height="24" viewBox="0 0 24 24" fill="none" xmlns="http://www.w3.org/2000/svg">
<path d="M11.9966 1.181e-05C14.773 -0.000781816 17.4638 0.961192 19.6104 2.72201C21.7571 4.48282 23.2267 6.93352 23.7689 9.65648C24.3111 12.3794 23.8924 15.2062 22.584 17.655C21.2756 20.1038 19.1586 22.0231 16.5936 23.086C14.0287 24.1488 11.1746 24.2893 8.51762 23.4836C5.86068 22.6779 3.56533 20.9758 2.02272 18.6673C0.480104 16.3589 -0.214317 13.587 0.0577887 10.8239C0.329894 8.06088 1.55169 5.47766 3.51497 3.51449C4.62725 2.3985 5.94922 1.51347 7.40483 0.910319C8.86044 0.307166 10.4209 -0.00220316 11.9966 1.181e-05ZM6.29141 15.5008L10.1729 11.6095L6.29141 8.44452V15.5008ZM10.6005 11.9571L6.59795 15.9694H17.36L13.5371 11.9571L12.2758 13.0329C12.2262 13.0735 12.1641 13.0957 12.1001 13.0957C12.036 13.0957 11.9739 13.0735 11.9243 13.0329L10.6005 11.9531V11.9571ZM13.9549 11.6017L17.7017 15.5321V8.40938L13.9549 11.6017ZM6.63895 8.02279L12.0864 12.4666L17.3093 8.02279H6.63895ZM19.4082 4.5786C17.6922 2.86307 15.4344 1.79559 13.0196 1.55803C10.6047 1.32046 8.18222 1.92751 6.16477 3.27575C4.14732 4.62399 2.65973 6.63 1.95544 8.95204C1.25115 11.2741 1.37374 13.7685 2.30231 16.0103C3.23088 18.252 4.90799 20.1025 7.04792 21.2465C9.18784 22.3904 11.6582 22.757 14.0381 22.2838C16.418 21.8106 18.5602 20.5269 20.0998 18.6514C21.6394 16.7758 22.481 14.4245 22.4814 11.9981C22.4833 10.6198 22.2128 9.25486 21.6854 7.98156C21.158 6.70826 20.3841 5.55178 19.4082 4.5786Z" fill="url(#paint0_linear_55_769)"/>
<defs>
<linearGradient id="paint0_linear_55_769" x1="2" y1="12" x2="24" y2="12" gradientUnits="userSpaceOnUse">
<stop stop-color="#D95F2F"/>
<stop offset="0.5" stop-color="#CE3D7E"/>
<stop offset="1" stop-color="#B91EBD"/>
</linearGradient>
</defs>
</svg>
