<svg width="24" height="24" viewBox="0 0 24 24" fill="none" xmlns="http://www.w3.org/2000/svg">
<g clip-path="url(#clip0_514_69)">
<path d="M17.2808 0H6.58645C2.95468 0 0 2.95482 0 6.58659V17.281C0 20.9129 2.95468 23.8676 6.58645 23.8676H17.2808C20.9129 23.8676 23.8676 20.9128 23.8676 17.281V6.58659C23.8677 2.95482 20.9129 0 17.2808 0ZM21.7501 17.281C21.7501 19.7452 19.7452 21.7499 17.281 21.7499H6.58645C4.12235 21.7501 2.11765 19.7452 2.11765 17.281V6.58659C2.11765 4.12249 4.12235 2.11765 6.58645 2.11765H17.2808C19.7451 2.11765 21.7499 4.12249 21.7499 6.58659L21.7501 17.281Z" fill="url(#paint0_linear_514_69)"/>
<path d="M11.9338 5.7832C8.54259 5.7832 5.78372 8.54207 5.78372 11.9333C5.78372 15.3243 8.54259 18.0831 11.9338 18.0831C15.325 18.0831 18.0839 15.3243 18.0839 11.9333C18.0839 8.54207 15.325 5.7832 11.9338 5.7832ZM11.9338 15.9653C9.7104 15.9653 7.90137 14.1565 7.90137 11.9331C7.90137 9.7096 9.71026 7.90071 11.9338 7.90071C14.1573 7.90071 15.9662 9.7096 15.9662 11.9331C15.9662 14.1565 14.1572 15.9653 11.9338 15.9653Z" fill="url(#paint1_linear_514_69)"/>
<path d="M18.3418 3.98828C17.9338 3.98828 17.533 4.15346 17.2448 4.44287C16.9553 4.73087 16.7888 5.13181 16.7888 5.54122C16.7888 5.94936 16.9554 6.35016 17.2448 6.63958C17.5328 6.92758 17.9338 7.09416 18.3418 7.09416C18.7512 7.09416 19.1507 6.92758 19.4401 6.63958C19.7296 6.35016 19.8947 5.94922 19.8947 5.54122C19.8947 5.13181 19.7296 4.73087 19.4401 4.44287C19.1521 4.15346 18.7512 3.98828 18.3418 3.98828Z" fill="url(#paint2_linear_514_69)"/>
</g>
<defs>
<linearGradient id="paint0_linear_514_69" x1="11.9338" y1="0" x2="11.9338" y2="23.8676" gradientUnits="userSpaceOnUse">
<stop stop-color="#D95F2F"/>
<stop offset="0.5" stop-color="#CE3D7E"/>
<stop offset="1" stop-color="#B91EBD"/>
</linearGradient>
<linearGradient id="paint1_linear_514_69" x1="11.9338" y1="5.7832" x2="11.9338" y2="18.0831" gradientUnits="userSpaceOnUse">
<stop stop-color="#D95F2F"/>
<stop offset="0.5" stop-color="#CE3D7E"/>
<stop offset="1" stop-color="#B91EBD"/>
</linearGradient>
<linearGradient id="paint2_linear_514_69" x1="18.3418" y1="3.98828" x2="18.3418" y2="7.09416" gradientUnits="userSpaceOnUse">
<stop stop-color="#D95F2F"/>
<stop offset="0.5" stop-color="#CE3D7E"/>
<stop offset="1" stop-color="#B91EBD"/>
</linearGradient>
<clipPath id="clip0_514_69">
<rect width="24" height="24" fill="white"/>
</clipPath>
</defs>
</svg>
