<svg width="24" height="24" viewBox="0 0 24 24" fill="none" xmlns="http://www.w3.org/2000/svg">
<path d="M12 1.2C17.955 1.2 22.8 6.045 22.8 12C22.8 17.955 17.955 22.8 12 22.8C6.045 22.8 1.2 17.955 1.2 12C1.2 6.045 6.045 1.2 12 1.2ZM12 0C5.373 0 0 5.3724 0 12C0 18.6282 5.373 24 12 24C18.6282 24 24 18.6282 24 12C24 5.3724 18.6282 0 12 0Z" fill="url(#paint0_linear_55_761)"/>
<path fill-rule="evenodd" clip-rule="evenodd" d="M8.62259 5.87555C9.34679 5.73875 9.82139 6.55535 10.1826 7.11875C10.5342 7.66595 10.9668 8.30795 10.7922 9.02015C10.695 9.41975 10.3338 9.63755 10.0608 9.87335C9.79139 10.1062 9.38099 10.3198 9.28139 10.6774C9.11879 11.2576 9.47459 11.8666 9.69479 12.2134C10.1952 12.997 10.8 13.7032 11.5722 14.3338C11.946 14.6398 12.465 15.0484 12.9852 14.9434C13.7622 14.7862 13.9674 13.828 14.8134 13.7002C15.6186 13.5784 16.1634 14.1622 16.6182 14.5534C17.0562 14.932 17.763 15.4168 17.715 16.0654C17.6868 16.438 17.388 16.669 17.1288 16.894C16.8654 17.1238 16.6344 17.3818 16.374 17.5516C15.7434 17.9632 14.97 18.1648 14.082 18.1372C13.2114 18.1102 12.5178 17.8144 11.8884 17.479C10.6578 16.8226 9.68519 15.8992 8.76899 14.8702C7.86779 13.8586 7.03559 12.661 6.57539 11.3368C6.00119 9.68315 6.30479 7.98455 7.23419 6.92495C7.39139 6.74495 7.63979 6.55715 7.86719 6.36395C8.09399 6.17015 8.30399 5.93555 8.62259 5.87555Z" fill="url(#paint1_linear_55_761)"/>
<defs>
<linearGradient id="paint0_linear_55_761" x1="1.5" y1="13.5" x2="22.8" y2="13.5" gradientUnits="userSpaceOnUse">
<stop stop-color="#D95F2F"/>
<stop offset="0.5" stop-color="#CE3D7E"/>
<stop offset="1" stop-color="#B91EBD"/>
</linearGradient>
<linearGradient id="paint1_linear_55_761" x1="6.99875" y1="12.7675" x2="17.1457" y2="12.7675" gradientUnits="userSpaceOnUse">
<stop stop-color="#D95F2F"/>
<stop offset="0.5" stop-color="#CE3D7E"/>
<stop offset="1" stop-color="#B91EBD"/>
</linearGradient>
</defs>
</svg>
