<svg width="26" height="21" viewBox="0 0 26 21" fill="none" xmlns="http://www.w3.org/2000/svg">
<g clip-path="url(#clip0_514_63)">
<path d="M25.8072 2.48023C24.8573 2.90112 23.8382 3.18656 22.7673 3.31399C23.8607 2.65924 24.6977 1.62071 25.0944 0.387024C24.0687 0.993367 22.9366 1.43365 21.7304 1.67233C20.7644 0.641849 19.3904 0 17.8664 0C14.9427 0 12.5721 2.3706 12.5721 5.29272C12.5721 5.70715 12.6189 6.11193 12.7092 6.49899C8.30993 6.27803 4.40895 4.17031 1.79807 0.96756C1.34168 1.7481 1.08205 2.6576 1.08205 3.62845C1.08205 5.46527 2.01739 7.08598 3.43654 8.03419C2.56892 8.00517 1.75291 7.7665 1.03853 7.36978V7.4359C1.03853 10 2.86405 12.14 5.28462 12.627C4.84113 12.7464 4.37348 12.8125 3.88968 12.8125C3.54782 12.8125 3.21722 12.7786 2.89307 12.7141C3.56713 14.8186 5.52169 16.349 7.83747 16.391C6.02645 17.8101 3.74293 18.6535 1.2627 18.6535C0.835361 18.6535 0.414434 18.6277 0 18.581C2.34319 20.0856 5.12501 20.9628 8.11486 20.9628C17.8536 20.9628 23.177 12.8964 23.177 5.9007L23.1592 5.21534C24.1994 4.47346 25.0992 3.54137 25.8072 2.48023Z" fill="url(#paint0_linear_514_63)"/>
</g>
<defs>
<linearGradient id="paint0_linear_514_63" x1="12.9036" y1="0" x2="12.9036" y2="20.9628" gradientUnits="userSpaceOnUse">
<stop stop-color="#D95F2F"/>
<stop offset="0.5" stop-color="#CE3D7E"/>
<stop offset="1" stop-color="#B91EBD"/>
</linearGradient>
<clipPath id="clip0_514_63">
<rect width="26" height="21" fill="white"/>
</clipPath>
</defs>
</svg>
